<?xml version="1.0" encoding="utf-8"?>
<!-- Generator: Adobe Illustrator 19.1.0, SVG Export Plug-In . SVG Version: 6.00 Build 0)  -->
<svg version="1.1" id="Layer_1" xmlns="http://www.w3.org/2000/svg" xmlns:xlink="http://www.w3.org/1999/xlink" x="0px" y="0px"
	 viewBox="0 0 400 400" style="enable-background:new 0 0 400 400;" xml:space="preserve">
<style type="text/css">
	.st0{fill:#B9B1AB;}
</style>
<path class="st0" d="M379.9,166.7c-0.2,0.6-0.8,0.9-1.4,0.9H330v132.3c0,1.6-1.3,2.9-2.9,2.9H139c-1.2,0-2.3-0.7-2.7-1.9
	c-0.4-1.1-0.1-2.4,0.8-3.2l32.1-29.4c0.5-0.5,1.2-0.8,2-0.8h123.6v-99.9h-49.2c-0.6,0-1.1-0.4-1.4-0.9c-0.2-0.6-0.1-1.2,0.4-1.6
	l65.9-60.2c0.3-0.3,0.6-0.4,1-0.4c0.3,0,0.7,0.1,1,0.4l67.1,60.3C380,165.5,380.1,166.1,379.9,166.7"/>
<path class="st0" d="M230.8,137.5c-0.6,0.5-1.2,0.8-2,0.8H106.6v99.9h47.8c0.6,0,1.2,0.4,1.4,0.9c0.2,0.6,0.1,1.2-0.4,1.6L89.6,301
	c-0.6,0.5-1.4,0.5-2,0l-67.1-60.3c-0.4-0.4-0.6-1.1-0.4-1.6c0.2-0.6,0.8-0.9,1.4-0.9h49.9V105.9c0-1.6,1.3-2.9,2.9-2.9H261
	c1.2,0,2.3,0.7,2.7,1.9c0.4,1.1,0.1,2.4-0.7,3.2L230.8,137.5z"/>
<path class="st0" d="M611.5,69.2L611.5,69.2c0-3-2.5-5.5-5.5-5.5c-1.8,0-3.4,0.9-4.5,2.3c-1-1.4-2.6-2.3-4.5-2.3
	c-3,0-5.5,2.5-5.5,5.5h0c0,0,0,0,0,0c0,0,0,0,0,0c0,0.6,0.1,1.1,0.3,1.7c1.1,3.9,5.8,8.1,8.7,10.3c0.4,0.3,0.8,0.6,1.1,0.8
	c0.3-0.2,0.7-0.5,1.1-0.8c2.8-2.2,7.5-6.4,8.6-10.3C611.4,70.4,611.5,69.9,611.5,69.2C611.5,69.3,611.5,69.3,611.5,69.2
	C611.5,69.3,611.5,69.2,611.5,69.2"/>
<path class="st0" d="M534.1,79c1.1,2.7,4.3,3.9,7,2.7l5.9-2.5c2.8-1.2,4.1-4.3,3-7c-0.3-0.7-0.8-1.3-1.3-1.9
	c-0.5-0.5-1.3-0.4-1.8,0.1c-0.4,0.5-0.4,1.3,0.1,1.8c0.3,0.3,0.5,0.6,0.7,0.9c0.6,1.4-0.2,3-1.7,3.6l-5.9,2.5
	c-1.5,0.6-3.2,0-3.7-1.3c-0.6-1.4,0.2-3,1.7-3.6l1.8-0.8c0.6-0.3,0.9-1,0.7-1.7c-0.3-0.6-1-1-1.6-0.7l-1.8,0.8
	C534.4,73.2,533,76.3,534.1,79"/>
<path class="st0" d="M542.2,73.9c0.3,0.7,0.8,1.3,1.3,1.9c0.5,0.5,1.3,0.4,1.8-0.1c0.4-0.5,0.4-1.3-0.1-1.8
	c-0.3-0.3-0.5-0.6-0.7-0.9c-0.6-1.4,0.2-3,1.7-3.6l5.9-2.5c1.5-0.6,3.2,0,3.7,1.3c0.6,1.4-0.2,3-1.7,3.6l-1.8,0.8
	c-0.6,0.3-0.9,1-0.7,1.7c0.3,0.6,1,1,1.6,0.7l1.8-0.8c2.8-1.2,4.1-4.3,3-7c-1.1-2.7-4.3-3.9-7-2.7l-5.9,2.5
	C542.5,68.1,541.1,71.2,542.2,73.9"/>
</svg>
