<?xml version="1.0" encoding="utf-8"?>
<!-- Generator: Adobe Illustrator 19.1.0, SVG Export Plug-In . SVG Version: 6.00 Build 0)  -->
<svg version="1.1" id="Layer_1" xmlns="http://www.w3.org/2000/svg" xmlns:xlink="http://www.w3.org/1999/xlink" x="0px" y="0px"
	 viewBox="0 0 400 400" style="enable-background:new 0 0 400 400;" xml:space="preserve">
<style type="text/css">
	.st0{fill:#B9B1AB;}
</style>
<path class="st0" d="M332.8,160.6L332.8,160.6c-0.4-40-32.9-72.3-73-72.3c-24.1,0-45.4,11.7-58.7,29.7c-13.3-18-34.7-29.7-58.8-29.7
	c-40.1,0-72.6,32.3-73.1,72.3h0c0,0.1,0,0.3,0,0.4c0,0.1,0,0.3,0,0.4c0,7.7,1.2,15.1,3.4,22.1c14.8,52,76.9,106.7,114.2,135.7
	c5.3,4.2,10.2,7.8,14.3,10.8c4.1-3,8.9-6.7,14.3-10.9c37.2-29,99.2-83.7,114-135.7c2.2-7,3.4-14.4,3.4-22.1c0-0.1,0-0.3,0-0.4
	C332.7,160.9,332.8,160.8,332.8,160.6"/>
</svg>
