<?xml version="1.0" encoding="utf-8"?>
<!-- Generator: Adobe Illustrator 19.1.0, SVG Export Plug-In . SVG Version: 6.00 Build 0)  -->
<svg version="1.1" id="Layer_1" xmlns="http://www.w3.org/2000/svg" xmlns:xlink="http://www.w3.org/1999/xlink" x="0px" y="0px"
	 viewBox="0 0 400 400" style="enable-background:new 0 0 400 400;" xml:space="preserve">
<style type="text/css">
	.st0{fill:#C18855;}
	.st1{fill:#281914;}
</style>
<path class="st0" d="M577.4,557.1c35.7,0,64.6-28.9,64.6-64.6c0-35.7-28.9-64.6-64.6-64.6c-35.7,0-64.6,28.9-64.6,64.6
	C512.8,528.2,541.7,557.1,577.4,557.1"/>
<path class="st1" d="M555,504.2c0,0-3.5-7.8,6.7-14.5l5.5,11.2L555,504.2z M571.7,485.3c18.1-5.2,33.2,5.4,33.2,5.4l-12.4,3.4
	l-3.6-6.7c-3.4-0.6-7.2-0.8-11.3-0.1l8.5,17.2l36.6-10.5c0,0-13.3-20.9-52.9-14.1c-0.2,0-0.4,0.1-0.7,0.1l-3.8-7.8l-11.4,1.3
	l4.7,9.5c-24,9.9-13.4,33.3-13.4,33.3l36.7-10.6L571.7,485.3z"/>
<g>
	<path class="st1" d="M200.9,208.3l79-58c-0.8-0.2-1.6-0.3-2.6-0.3H125c0,0-4.1,0-6.9,2.7L200.9,208.3z"/>
	<path class="st1" d="M203.6,217.3c-0.8,0.6-1.7,0.9-2.6,0.9c-0.9,0-1.7-0.2-2.5-0.8l-82.8-55.6v87.5c0,0,0,9.3,9.3,9.3h152.3
		c0,0,9.3,0,9.3-9.3v-90c0,0,0-1.1-0.4-2.6L203.6,217.3z"/>
</g>
</svg>
