<?xml version="1.0" encoding="utf-8"?>
<!-- Generator: Adobe Illustrator 19.1.0, SVG Export Plug-In . SVG Version: 6.00 Build 0)  -->
<svg version="1.1" id="Layer_1" xmlns="http://www.w3.org/2000/svg" xmlns:xlink="http://www.w3.org/1999/xlink" x="0px" y="0px"
	 viewBox="0 0 400 400" style="enable-background:new 0 0 400 400;" xml:space="preserve">
<style type="text/css">
	.st0{fill:#281914;}
</style>
<path class="st0" d="M133.8,217.7c0,0-9.7-21.5,18.6-39.9l15.1,30.8L133.8,217.7z M179.7,165.7c49.8-14.3,91.3,14.9,91.3,14.9
	l-34.3,9.2l-9.9-18.3c-9.3-1.7-19.9-2.2-31.1-0.4l23.3,47.4l100.8-29c0,0-36.5-57.4-145.6-38.9c-0.6,0.1-1.2,0.3-1.8,0.4l-10.6-21.5
	l-31.4,3.6l12.8,26.2c-66.2,27.3-36.8,91.7-36.8,91.7l100.9-29L179.7,165.7z"/>
</svg>
