<?xml version="1.0" encoding="utf-8"?>
<!-- Generator: Adobe Illustrator 19.1.0, SVG Export Plug-In . SVG Version: 6.00 Build 0)  -->
<svg version="1.1" id="Layer_1" xmlns="http://www.w3.org/2000/svg" xmlns:xlink="http://www.w3.org/1999/xlink" x="0px" y="0px"
	 viewBox="0 0 400 400" style="enable-background:new 0 0 400 400;" xml:space="preserve">
<style type="text/css">
	.st0{fill:#C18855;}
	.st1{fill:#281914;}
	.st2{fill:none;stroke:#C18855;stroke-width:1.5;stroke-linecap:round;stroke-linejoin:round;}
</style>
<path class="st0" d="M-9.4,557.1c35.7,0,64.6-28.9,64.6-64.6c0-35.7-28.9-64.6-64.6-64.6S-74,456.8-74,492.5
	C-74,528.2-45.1,557.1-9.4,557.1"/>
<path class="st1" d="M22.7,475.7c-2.4,1-4.9,1.8-7.5,2.1c2.7-1.6,4.8-4.2,5.8-7.3c-2.5,1.5-5.3,2.6-8.3,3.2
	c-2.4-2.6-5.8-4.1-9.6-4.1c-7.3,0-13.1,5.9-13.1,13.1c0,1,0.1,2,0.3,3c-10.9-0.5-20.6-5.8-27.1-13.7c-1.1,1.9-1.8,4.2-1.8,6.6
	c0,4.6,2.3,8.6,5.8,10.9c-2.2-0.1-4.2-0.7-6-1.6v0.2c0,6.4,4.5,11.7,10.5,12.9c-1.1,0.3-2.3,0.5-3.5,0.5c-0.8,0-1.7-0.1-2.5-0.2
	c1.7,5.2,6.5,9,12.3,9.1c-4.5,3.5-10.2,5.6-16.3,5.6c-1.1,0-2.1-0.1-3.1-0.2c5.8,3.7,12.7,5.9,20.1,5.9c24.2,0,37.4-20,37.4-37.4
	c0-0.6,0-1.1,0-1.7C18.7,480.7,20.9,478.4,22.7,475.7"/>
<path class="st1" d="M298.3,143.1c-6.7,3-13.9,5-21.5,5.9c7.7-4.6,13.6-11.9,16.4-20.7c-7.2,4.3-15.2,7.4-23.7,9.1
	c-6.8-7.3-16.5-11.8-27.3-11.8c-20.6,0-37.4,16.7-37.4,37.4c0,2.9,0.3,5.8,1,8.5c-31.1-1.6-58.6-16.4-77-39.1
	c-3.2,5.5-5.1,12-5.1,18.8c0,13,6.6,24.4,16.6,31.1c-6.1-0.2-11.9-1.9-16.9-4.7v0.5c0,18.1,12.9,33.2,30,36.6
	c-3.1,0.9-6.4,1.3-9.9,1.3c-2.4,0-4.8-0.2-7-0.7c4.8,14.8,18.6,25.7,34.9,25.9c-12.8,10-28.9,16-46.4,16c-3,0-6-0.2-8.9-0.5
	c16.5,10.6,36.2,16.8,57.3,16.8c68.8,0,106.3-56.9,106.3-106.3c0-1.6,0-3.2-0.1-4.8C287,157.2,293.3,150.6,298.3,143.1"/>
<path class="st0" d="M186.2,557.1c35.7,0,64.6-28.9,64.6-64.6c0-35.7-28.9-64.6-64.6-64.6c-35.7,0-64.6,28.9-64.6,64.6
	C121.6,528.2,150.5,557.1,186.2,557.1"/>
<path class="st1" d="M211.9,512.1c0,3.4-2.7,6.1-6.1,6.1h-39.2c-3.4,0-6.1-2.7-6.1-6.1v-26.2h9.5c-0.8,2-1.3,4.2-1.3,6.6
	c0,9.6,7.8,17.5,17.5,17.5c9.6,0,17.5-7.8,17.5-17.5c0-2.3-0.5-4.5-1.3-6.6h9.5V512.1z M177.1,485.9c2-2.8,5.4-4.7,9.1-4.7
	c3.8,0,7.1,1.9,9.1,4.7c1.3,1.8,2.1,4.1,2.1,6.6c0,6.2-5.1,11.3-11.3,11.3c-6.2,0-11.3-5-11.3-11.3
	C174.9,490,175.7,487.8,177.1,485.9 M209.4,467.9l1.4,0v1.4v9.4l-10.8,0l0-10.8L209.4,467.9z M205.8,460.5h-39.2
	c-6.8,0-12.4,5.5-12.4,12.4v13.1v26.2c0,6.8,5.5,12.4,12.4,12.4h39.2c6.8,0,12.4-5.5,12.4-12.4v-26.2v-13.1
	C218.2,466.1,212.6,460.5,205.8,460.5"/>
<path class="st0" d="M577.4,557.1c35.7,0,64.6-28.9,64.6-64.6c0-35.7-28.9-64.6-64.6-64.6c-35.7,0-64.6,28.9-64.6,64.6
	C512.8,528.2,541.7,557.1,577.4,557.1"/>
<path class="st1" d="M555,504.2c0,0-3.5-7.8,6.7-14.5l5.5,11.2L555,504.2z M571.7,485.3c18.1-5.2,33.2,5.4,33.2,5.4l-12.4,3.4
	l-3.6-6.7c-3.4-0.6-7.2-0.8-11.3-0.1l8.5,17.2l36.6-10.5c0,0-13.3-20.9-52.9-14.1c-0.2,0-0.4,0.1-0.7,0.1l-3.8-7.8l-11.4,1.3
	l4.7,9.5c-24,9.9-13.4,33.3-13.4,33.3l36.7-10.6L571.7,485.3z"/>
<path class="st0" d="M381.8,557.1c35.7,0,64.6-28.9,64.6-64.6c0-35.7-28.9-64.6-64.6-64.6c-35.7,0-64.6,28.9-64.6,64.6
	C317.2,528.2,346.1,557.1,381.8,557.1"/>
<path class="st1" d="M351.5,470.9c0,0-3.7,0-3.7,3.7v35.9c0,0,0,3.7,3.7,3.7h60.6c0,0,3.7,0,3.7-3.7v-35.9c0,0,0-3.7-3.7-3.7H351.5z
	"/>
<polyline class="st2" points="346.6,472.7 381.8,496.2 416.9,470.4 "/>
</svg>
